<svg xmlns="http://www.w3.org/2000/svg" xmlns:xlink="http://www.w3.org/1999/xlink" width="200" zoomAndPan="magnify" viewBox="0 0 150 149.999998" height="200" preserveAspectRatio="xMidYMid meet" version="1.0"><path fill="#ffffff" d="M 65.074219 66.609375 C 64.472656 65.472656 63.652344 64.433594 62.617188 63.492188 C 61.585938 62.546875 60.265625 61.785156 58.652344 61.210938 C 57.046875 60.632812 55.117188 60.34375 52.878906 60.34375 L 32.503906 60.34375 L 32.503906 104.632812 L 36.046875 104.632812 L 36.046875 87.351562 C 36.046875 86.375 36.835938 85.585938 37.8125 85.585938 L 52.875 85.585938 C 55.148438 85.585938 57.082031 85.300781 58.675781 84.730469 C 60.269531 84.152344 61.585938 83.386719 62.617188 82.429688 C 63.652344 81.46875 64.46875 80.425781 65.074219 79.304688 C 65.679688 78.179688 66.101562 77.066406 66.332031 75.960938 C 66.570312 74.851562 66.691406 73.855469 66.691406 72.96875 C 66.691406 72.085938 66.570312 71.085938 66.332031 69.976562 C 66.097656 68.867188 65.679688 67.746094 65.074219 66.609375 Z M 59.054688 81.539062 C 56.765625 83.652344 53.40625 84.703125 48.976562 84.703125 L 38.261719 84.703125 C 37.609375 84.703125 37.078125 84.496094 36.667969 84.085938 C 36.253906 83.671875 36.050781 83.140625 36.050781 82.488281 L 36.050781 64.242188 C 36.050781 63.03125 36.238281 62.230469 36.625 61.828125 C 37.007812 61.433594 37.601562 61.234375 38.398438 61.234375 C 39.019531 61.234375 39.9375 61.226562 41.164062 61.210938 C 42.390625 61.195312 43.710938 61.183594 45.128906 61.183594 L 48.984375 61.183594 C 53.410156 61.183594 56.773438 62.246094 59.0625 64.375 C 61.351562 66.496094 62.492188 69.367188 62.492188 72.96875 C 62.492188 76.570312 61.351562 79.429688 59.0625 81.539062 Z M 59.054688 81.539062 " fill-opacity="1" fill-rule="nonzero"/><path fill="#ffffff" d="M 73.296875 60.34375 L 72.765625 104.632812 L 77.28125 104.632812 L 76.675781 60.34375 Z M 73.296875 60.34375 " fill-opacity="1" fill-rule="nonzero"/><path fill="#ffffff" d="M 113.773438 60.34375 L 116.433594 99.808594 C 116.488281 100.574219 116.34375 100.957031 115.988281 100.957031 C 115.753906 100.957031 115.46875 100.738281 115.148438 100.296875 C 110.101562 93.148438 105.25 86.296875 100.597656 79.742188 C 95.953125 73.1875 91.382812 66.722656 86.894531 60.34375 L 83.261719 60.34375 L 83.261719 104.632812 L 86.980469 104.632812 L 84.324219 65.171875 C 84.265625 64.40625 84.414062 64.023438 84.769531 64.023438 C 85.03125 64.023438 85.3125 64.242188 85.609375 64.683594 C 88.351562 68.582031 90.941406 72.25 93.382812 75.671875 C 95.816406 79.09375 98.15625 82.386719 100.402344 85.546875 C 102.644531 88.699219 104.882812 91.84375 107.109375 94.972656 C 109.339844 98.101562 111.621094 101.324219 113.953125 104.632812 L 117.496094 104.632812 L 117.496094 60.34375 Z M 113.773438 60.34375 " fill-opacity="1" fill-rule="nonzero"/><path fill="#fc5d02" d="M 80.335938 50.703125 C 80.335938 51.054688 80.304688 51.402344 80.234375 51.746094 C 80.167969 52.085938 80.066406 52.421875 79.929688 52.746094 C 79.796875 53.070312 79.632812 53.375 79.4375 53.667969 C 79.242188 53.960938 79.023438 54.230469 78.773438 54.476562 C 78.527344 54.726562 78.257812 54.945312 77.964844 55.140625 C 77.671875 55.335938 77.367188 55.5 77.042969 55.632812 C 76.71875 55.769531 76.386719 55.867188 76.042969 55.9375 C 75.699219 56.003906 75.351562 56.039062 75 56.039062 C 74.648438 56.039062 74.300781 56.003906 73.957031 55.9375 C 73.613281 55.867188 73.28125 55.769531 72.957031 55.632812 C 72.632812 55.5 72.328125 55.335938 72.035156 55.140625 C 71.742188 54.945312 71.472656 54.726562 71.226562 54.476562 C 70.976562 54.230469 70.757812 53.960938 70.5625 53.667969 C 70.367188 53.375 70.203125 53.070312 70.070312 52.746094 C 69.933594 52.421875 69.832031 52.085938 69.765625 51.746094 C 69.695312 51.402344 69.664062 51.054688 69.664062 50.703125 C 69.664062 50.351562 69.695312 50.003906 69.765625 49.660156 C 69.832031 49.316406 69.933594 48.984375 70.070312 48.660156 C 70.203125 48.335938 70.367188 48.027344 70.5625 47.738281 C 70.757812 47.445312 70.976562 47.175781 71.226562 46.929688 C 71.472656 46.679688 71.742188 46.460938 72.035156 46.265625 C 72.328125 46.070312 72.632812 45.90625 72.957031 45.773438 C 73.28125 45.636719 73.613281 45.535156 73.957031 45.46875 C 74.300781 45.398438 74.648438 45.367188 75 45.367188 C 75.351562 45.367188 75.699219 45.398438 76.042969 45.46875 C 76.386719 45.535156 76.71875 45.636719 77.042969 45.773438 C 77.367188 45.90625 77.671875 46.070312 77.964844 46.265625 C 78.257812 46.460938 78.527344 46.679688 78.773438 46.929688 C 79.023438 47.175781 79.242188 47.445312 79.4375 47.738281 C 79.632812 48.027344 79.796875 48.335938 79.929688 48.660156 C 80.066406 48.984375 80.167969 49.316406 80.234375 49.660156 C 80.304688 50.003906 80.335938 50.351562 80.335938 50.703125 Z M 80.335938 50.703125 " fill-opacity="1" fill-rule="nonzero"/></svg>